<svg id="visual" viewBox="0 0 960 540" width="960" height="540" xmlns="http://www.w3.org/2000/svg" xmlns:xlink="http://www.w3.org/1999/xlink" version="1.1"><g><g transform="translate(722 257)"><path d="M75.2 -41.9C83.9 -28.3 68.1 0.9 51.5 20.4C34.9 39.8 17.4 49.4 2.4 48C-12.5 46.6 -25.1 34.2 -38 16.9C-50.9 -0.4 -64.1 -22.5 -57.8 -34.7C-51.6 -46.9 -25.8 -49.1 3.7 -51.3C33.3 -53.5 66.5 -55.5 75.2 -41.9Z" fill="#F7760E"></path></g><g transform="translate(184 326)"><path d="M33.4 -21.1C41.8 -4.7 46.1 12.2 39.8 21.5C33.6 30.8 16.8 32.5 0 32.5C-16.8 32.5 -33.6 30.8 -39.3 21.9C-44.9 12.9 -39.3 -3.3 -30.9 -19.6C-22.5 -36 -11.3 -52.5 0.6 -52.8C12.5 -53.2 25 -37.4 33.4 -21.1Z" fill="#F7760E"></path></g><g transform="translate(45 105)"><path d="M51.4 -31.6C59.8 -15.2 55.1 6.9 44.3 27.4C33.5 47.9 16.8 66.7 0.6 66.3C-15.5 66 -30.9 46.4 -42.5 25.4C-54.1 4.5 -61.8 -17.8 -54.1 -33.9C-46.3 -50 -23.2 -59.8 -0.8 -59.4C21.5 -58.9 43 -48.1 51.4 -31.6Z" fill="#F7760E"></path></g><g transform="translate(397 212)"><path d="M59.1 -31C70.5 -14.3 69.5 12.6 57.6 29C45.7 45.4 22.8 51.2 0.5 51C-21.9 50.7 -43.9 44.4 -56.2 27.7C-68.6 11.1 -71.4 -15.9 -60.4 -32.3C-49.4 -48.7 -24.7 -54.5 -0.4 -54.2C23.8 -54 47.6 -47.6 59.1 -31Z" fill="#F7760E"></path></g><g transform="translate(717 6)"><path d="M62.3 -33.5C73.4 -16.8 70 10.9 57.2 30.4C44.4 49.9 22.2 61.3 -0.4 61.6C-23.1 61.8 -46.1 50.9 -57 32.5C-67.9 14.1 -66.6 -11.8 -55 -28.8C-43.5 -45.9 -21.8 -54.1 1.9 -55.2C25.6 -56.3 51.2 -50.3 62.3 -33.5Z" fill="#F7760E"></path></g><g transform="translate(374 473)"><path d="M37.9 -26.4C45.3 -9.1 44.8 8.2 37.2 26.2C29.5 44.1 14.8 62.6 -4.6 65.3C-24 68 -48 54.8 -58.4 35.3C-68.7 15.8 -65.3 -10 -53.3 -29.9C-41.3 -49.9 -20.7 -63.9 -2.7 -62.4C15.3 -60.8 30.6 -43.6 37.9 -26.4Z" fill="#F7760E"></path></g></g></svg>